# xmcd CD database file
#
# Track frame offsets:
#	150
#	19780
#	40527
#	44657
#	56687
#	78337
#	93745
#	96579
#	121617
#	145797
#	166492
#	187062
#	220547
#	241975
#	262370
#
# Disc length: 3719 seconds
#
# Revision: 0
# Processed by: cddbd v1.4PL0 Copyright (c) Steve Scherf et al.
# Submitted via: CDex 1.50beta10
#
DISCID=d50e850f
DTITLE=Mirek - tender care
DYEAR=1998
DGENRE=New Age
TTITLE0=Lucky Birth
TTITLE1=Yzephal
TTITLE2=Sunbeam
TTITLE3=No Name
TTITLE4=Happiness
TTITLE5=Jemma
TTITLE6=Rainbow
TTITLE7=Milena
TTITLE8=Green Earth
TTITLE9=Al Mare
TTITLE10=Esprit
TTITLE11=Pelikana
TTITLE12=Blue Cloud
TTITLE13=Yntimmirsextek
TTITLE14=Luna
EXTD=YEAR: 1998
EXTT0=
EXTT1=
EXTT2=
EXTT3=
EXTT4=
EXTT5=
EXTT6=
EXTT7=
EXTT8=
EXTT9=
EXTT10=
EXTT11=
EXTT12=
EXTT13=
EXTT14=
PLAYORDER=
